<svg width="290" height="289" xmlns="http://www.w3.org/2000/svg" xmlns:xlink="http://www.w3.org/1999/xlink" overflow="hidden"><defs><clipPath id="clip0"><rect x="742" y="420" width="290" height="289"/></clipPath><clipPath id="clip1"><rect x="743" y="421" width="288" height="288"/></clipPath><clipPath id="clip2"><rect x="743" y="421" width="288" height="288"/></clipPath><clipPath id="clip3"><rect x="743" y="421" width="288" height="288"/></clipPath><clipPath id="clip4"><rect x="854" y="499" width="66" height="67"/></clipPath></defs><g clip-path="url(#clip0)" transform="translate(-742 -420)"><g clip-path="url(#clip1)"><g clip-path="url(#clip2)"><g clip-path="url(#clip3)"><path d="M743 421 1031 421 1031 709 743 709Z" fill="#FFFFFF" fill-rule="nonzero" fill-opacity="1"/><path d="M743 421 1031 421 1031 709 743 709Z" fill="#FFFFFF" fill-rule="nonzero" fill-opacity="1"/><path d="M743 421 1031 421 1031 709 743 709Z" fill="#FFFFFF" fill-rule="nonzero" fill-opacity="1"/><g clip-path="url(#clip4)"><path d="M902.672 503.5C898.049 500.968 892.655 499.537 887.042 499.537 880.217 499.537 873.833 501.631 868.661 505.261 868.661 505.261 868.55 505.261 868.55 505.372 859.964 511.207 854.243 521.113 854.243 532.228 854.243 550.279 868.88 565.03 887.042 565.03 905.093 565.03 919.733 550.39 919.733 532.228 919.841 519.79 912.908 509.005 902.672 503.5ZM913.679 516.268C907.073 519.79 900.47 522.211 893.975 523.753 893.537 522.763 892.544 521.992 891.443 521.881 891.443 517.921 892.106 513.736 893.537 509.443L893.867 509.443C895.736 509.443 897.167 507.904 897.167 506.143L897.167 506.032C898.709 505.702 900.251 505.372 901.901 505.153 906.854 507.682 910.925 511.537 913.679 516.268ZM913.127 549.07C907.295 546.868 902.561 543.895 899.039 540.373 899.48 539.824 899.699 539.164 899.699 538.393L899.699 538.282C905.642 536.41 911.807 534.979 918.08 533.989 917.75 539.602 915.989 544.666 913.127 549.07ZM898.049 538.393C898.049 538.942 897.827 539.383 897.389 539.713 897.389 539.713 897.278 539.713 897.278 539.824 897.059 540.043 896.729 540.043 896.399 540.043 895.517 540.043 894.746 539.272 894.746 538.393 894.746 537.511 895.517 536.74 896.399 536.74 897.278 536.74 898.049 537.511 898.049 538.393ZM893.096 538.393 893.096 538.723C889.352 540.043 885.722 541.585 882.308 543.235 881.978 542.794 881.537 542.575 880.988 542.356 881.648 538.063 881.537 533.548 880.877 529.147 881.87 528.706 882.53 527.827 882.749 526.834 884.51 526.726 886.271 526.615 888.032 526.396 888.473 527.386 889.463 528.157 890.675 528.376 891.335 531.238 892.436 533.878 893.867 536.41 893.315 536.962 893.096 537.622 893.096 538.393ZM865.91 555.013C869.432 552.481 873.284 549.949 877.355 547.747 877.577 547.969 877.796 548.188 878.015 548.299 876.806 552.151 875.045 556.003 872.624 559.744 870.092 558.424 867.89 556.885 865.91 555.013ZM860.735 548.74 860.735 548.629C860.846 546.097 861.617 537.181 866.678 527.935 867.011 528.046 867.23 528.046 867.56 528.046 868.88 528.046 869.981 527.275 870.533 526.174 872.402 526.504 874.274 526.726 876.146 526.834 876.476 528.265 877.577 529.366 879.116 529.477 879.887 533.77 879.887 538.063 879.227 542.245 877.577 542.464 876.365 543.895 876.365 545.548 876.365 545.767 876.365 545.986 876.476 546.316 872.183 548.629 868.22 551.161 864.587 553.912 863.156 552.262 861.836 550.609 860.735 548.74ZM899.48 503.722C898.598 503.941 897.608 504.052 896.729 504.271 896.507 503.941 896.288 503.611 895.958 503.392 896.177 503.062 896.288 502.729 896.399 502.51 897.497 502.951 898.49 503.281 899.48 503.722ZM895.628 506.032C895.628 506.914 894.857 507.682 893.975 507.682 893.756 507.682 893.645 507.682 893.537 507.574 893.537 507.574 893.426 507.574 893.426 507.463L893.315 507.463C892.766 507.244 892.325 506.584 892.325 505.921 892.325 505.042 893.096 504.271 893.975 504.271 894.857 504.382 895.628 505.153 895.628 506.032ZM892.106 508.783C890.564 513.298 889.793 517.81 889.904 521.992 888.692 522.433 887.921 523.534 887.813 524.854 886.16 525.073 884.399 525.184 882.749 525.295 882.308 523.864 881.099 522.874 879.557 522.874L879.338 522.874C878.897 521.332 878.237 519.79 877.577 518.251 878.345 517.588 878.786 516.709 878.786 515.719 878.786 515.278 878.678 514.729 878.456 514.399 882.089 511.645 886.382 509.443 891.005 507.793 891.335 508.123 891.665 508.564 892.106 508.783ZM879.557 527.827C878.678 527.827 877.907 527.056 877.907 526.174 877.907 525.295 878.678 524.524 879.557 524.524 880.439 524.524 881.207 525.295 881.207 526.174 881.207 527.056 880.439 527.827 879.557 527.827ZM877.136 515.719C877.136 516.598 876.365 517.369 875.486 517.369 874.604 517.369 873.833 516.598 873.833 515.719 873.833 514.837 874.604 514.066 875.486 514.066 876.365 514.066 877.136 514.837 877.136 515.719ZM873.725 518.47C874.274 518.8 874.823 519.019 875.486 519.019 875.705 519.019 875.924 519.019 876.146 518.911 876.806 520.342 877.355 521.881 877.796 523.312 877.136 523.753 876.695 524.305 876.476 525.073 874.604 524.965 872.843 524.743 870.971 524.413 870.971 523.753 870.641 523.093 870.2 522.544 871.301 521.221 872.513 519.79 873.725 518.47ZM869.321 524.743 869.321 525.073C869.21 525.844 868.439 526.396 867.671 526.396 866.789 526.396 866.018 525.625 866.018 524.743 866.018 523.864 866.789 523.093 867.671 523.093 868.55 523.093 869.321 523.753 869.321 524.743ZM878.126 545.548C878.126 544.666 878.897 543.895 879.776 543.895 880.658 543.895 881.429 544.666 881.429 545.548 881.429 546.427 880.658 547.198 879.776 547.198 878.897 547.198 878.126 546.538 878.126 545.548ZM891.005 526.834C890.123 526.834 889.352 526.066 889.352 525.184 889.352 524.305 890.123 523.534 891.005 523.534 891.884 523.534 892.655 524.305 892.655 525.184 892.766 526.066 891.995 526.834 891.005 526.834ZM894.857 502.18C894.746 502.291 894.635 502.51 894.527 502.84 894.305 502.84 894.197 502.729 893.975 502.729 892.106 502.729 890.675 504.271 890.675 506.032 885.722 507.793 881.318 510.106 877.466 512.968 876.917 512.527 876.254 512.305 875.486 512.305 875.264 512.305 874.934 512.305 874.715 512.416 872.843 509.224 871.193 507.022 870.311 505.921 875.156 502.84 880.877 500.968 887.042 500.968 889.793 501.19 892.325 501.52 894.857 502.18ZM868.88 507.022C869.651 508.015 871.412 510.214 873.173 513.298 872.513 513.958 872.072 514.729 872.072 515.719 872.072 516.268 872.294 516.82 872.513 517.369 871.193 518.689 869.981 520.12 868.772 521.662 868.439 521.551 868.001 521.443 867.56 521.443 866.348 521.443 865.247 522.103 864.698 523.093 861.836 522.211 859.634 521.221 858.203 520.45 860.516 514.948 864.257 510.325 868.88 507.022ZM857.654 521.992C859.085 522.763 861.395 523.753 864.257 524.635L864.257 524.743C864.257 525.625 864.587 526.504 865.247 527.056 861.065 534.76 859.634 542.134 859.304 546.097 857.213 541.915 856.004 537.181 856.004 532.228 856.004 528.595 856.553 525.184 857.654 521.992ZM887.042 563.266C882.419 563.266 878.015 562.276 874.055 560.407 876.476 556.663 878.345 552.7 879.557 548.848L879.887 548.848C881.759 548.848 883.19 547.309 883.19 545.548 883.19 545.326 883.19 544.996 883.079 544.777 886.49 543.124 890.123 541.585 893.756 540.262 894.305 541.144 895.298 541.693 896.507 541.693 897.059 541.693 897.497 541.585 897.938 541.363 901.571 544.996 906.413 548.077 912.356 550.39 906.524 558.205 897.389 563.266 887.042 563.266ZM918.08 532.339C911.588 533.329 905.312 534.76 899.15 536.74 898.598 535.75 897.497 535.09 896.288 535.09 895.847 535.09 895.406 535.201 895.076 535.309 893.756 533.11 892.766 530.686 892.214 528.157 893.426 527.716 894.197 526.615 894.305 525.295 900.911 523.753 907.733 521.221 914.45 517.699 916.76 521.992 918.08 526.945 918.08 532.228Z" fill="#FF904D" fill-rule="nonzero" fill-opacity="1"/></g><path d="M887.3 564.295C878.648 564.295 870.503 560.926 864.389 554.8 858.263 548.686 854.894 540.541 854.894 531.889 854.894 523.237 858.263 515.089 864.389 508.978 870.503 502.852 878.648 499.483 887.3 499.483 895.952 499.483 904.1 502.852 910.214 508.978 916.34 515.104 919.706 523.237 919.706 531.889 919.706 540.541 916.34 548.686 910.214 554.8 904.1 560.926 895.952 564.295 887.3 564.295ZM887.3 501.427C879.167 501.427 871.514 504.598 865.763 510.349 860.012 516.1 856.838 523.756 856.838 531.889 856.838 540.022 860.012 547.678 865.763 553.429 871.514 559.177 879.167 562.351 887.3 562.351 895.436 562.351 903.089 559.177 908.84 553.429 914.591 547.678 917.765 540.022 917.765 531.889 917.765 523.756 914.591 516.1 908.84 510.349 903.089 504.598 895.436 501.427 887.3 501.427Z" fill="#FF904D" fill-rule="nonzero" fill-opacity="1"/><path d="M830.241 593.871C830.304 594.063 830.337 594.264 830.337 594.471 830.337 594.903 830.193 595.26 829.905 595.539 829.617 595.812 829.281 595.947 828.897 595.947 828.6 595.947 828.327 595.857 828.081 595.683 827.841 595.5 827.643 595.248 827.493 594.927L825.501 590.211 815.613 590.211 813.657 594.951C813.552 595.272 813.375 595.521 813.129 595.695 812.88 595.863 812.607 595.947 812.313 595.947 811.863 595.947 811.521 595.833 811.281 595.599 811.047 595.359 810.933 595.041 810.933 594.639 810.933 594.552 810.951 594.381 810.993 594.123L819.165 574.323C819.315 573.987 819.525 573.729 819.789 573.543 820.053 573.36 820.356 573.291 820.701 573.339 821.019 573.339 821.307 573.423 821.565 573.591 821.82 573.759 822.003 574.005 822.117 574.323ZM816.825 587.295 824.289 587.295 820.545 578.331Z" fill="#231F20" fill-rule="nonzero" fill-opacity="1"/><path d="M846.86 579.063C847.307 579.063 847.676 579.216 847.964 579.519 848.258 579.816 848.408 580.179 848.408 580.611L848.408 589.131C848.408 591.348 847.79 593.073 846.56 594.303 845.336 595.527 843.599 596.139 841.352 596.139 839.135 596.139 837.416 595.527 836.192 594.303 834.974 593.073 834.368 591.348 834.368 589.131L834.368 580.611C834.368 580.179 834.512 579.816 834.8 579.519 835.094 579.216 835.454 579.063 835.88 579.063 836.327 579.063 836.696 579.216 836.984 579.519 837.272 579.816 837.416 580.179 837.416 580.611L837.416 589.131C837.416 591.924 838.727 593.319 841.352 593.319 842.654 593.319 843.647 592.968 844.328 592.263 845.015 591.561 845.36 590.517 845.36 589.131L845.36 580.611C845.36 580.179 845.504 579.816 845.792 579.519 846.08 579.216 846.434 579.063 846.86 579.063Z" fill="#231F20" fill-rule="nonzero" fill-opacity="1"/><path d="M858.674 582.051 858.674 591.591C858.674 592.656 859.157 593.187 860.126 593.187 860.27 593.187 860.468 593.151 860.726 593.079 860.981 593.007 861.185 592.971 861.338 592.971 861.617 592.971 861.854 593.091 862.046 593.331 862.238 593.565 862.334 593.859 862.334 594.219 862.334 594.669 862.076 595.053 861.566 595.371 861.053 595.692 860.477 595.851 859.838 595.851 859.133 595.851 858.485 595.779 857.894 595.635 857.309 595.485 856.784 595.104 856.322 594.495 855.866 593.889 855.638 592.965 855.638 591.723L855.638 582.051 853.778 582.051C853.37 582.051 853.034 581.919 852.77 581.655 852.506 581.385 852.374 581.043 852.374 580.635 852.374 580.236 852.506 579.909 852.77 579.651 853.034 579.387 853.37 579.255 853.778 579.255L855.638 579.255 855.638 576.567C855.638 576.144 855.782 575.784 856.07 575.487 856.358 575.184 856.724 575.031 857.174 575.031 857.597 575.031 857.954 575.184 858.242 575.487 858.53 575.784 858.674 576.144 858.674 576.567L858.674 579.255 861.338 579.255C861.746 579.255 862.082 579.393 862.346 579.663 862.61 579.927 862.742 580.263 862.742 580.671 862.742 581.079 862.61 581.412 862.346 581.667 862.082 581.925 861.746 582.051 861.338 582.051Z" fill="#231F20" fill-rule="nonzero" fill-opacity="1"/><path d="M883.367 587.463C883.367 589.128 882.989 590.625 882.239 591.951 881.495 593.271 880.478 594.309 879.191 595.059 877.901 595.803 876.479 596.175 874.919 596.175 873.359 596.175 871.931 595.803 870.635 595.059 869.345 594.309 868.325 593.271 867.575 591.951 866.831 590.625 866.459 589.128 866.459 587.463 866.459 585.801 866.831 584.295 867.575 582.951 868.325 581.601 869.345 580.551 870.635 579.807 871.931 579.057 873.359 578.679 874.919 578.679 876.479 578.679 877.901 579.057 879.191 579.807 880.478 580.551 881.495 581.601 882.239 582.951 882.989 584.295 883.367 585.801 883.367 587.463ZM880.331 587.463C880.331 586.311 880.091 585.285 879.611 584.379 879.131 583.467 878.477 582.759 877.655 582.255 876.83 581.751 875.918 581.499 874.919 581.499 873.911 581.499 872.993 581.751 872.171 582.255 871.355 582.759 870.707 583.467 870.227 584.379 869.747 585.285 869.507 586.311 869.507 587.463 869.507 588.591 869.747 589.605 870.227 590.499 870.707 591.396 871.355 592.095 872.171 592.599 872.993 593.103 873.911 593.355 874.919 593.355 875.918 593.355 876.83 593.103 877.655 592.599 878.477 592.095 879.131 591.396 879.611 590.499 880.091 589.605 880.331 588.591 880.331 587.463Z" fill="#231F20" fill-rule="nonzero" fill-opacity="1"/><path d="M904.437 574.743C904.947 575.025 905.205 575.451 905.205 576.027 905.205 576.411 905.076 576.765 904.821 577.083 904.563 577.428 904.212 577.599 903.765 577.599 903.468 577.599 903.18 577.524 902.901 577.371 901.581 576.627 900.153 576.255 898.617 576.255 897.009 576.255 895.587 576.609 894.357 577.311 893.133 578.016 892.179 579.003 891.501 580.275 890.82 581.541 890.481 582.996 890.481 584.643 890.481 586.413 890.832 587.94 891.537 589.227 892.239 590.508 893.208 591.483 894.441 592.155 895.68 592.827 897.072 593.163 898.617 593.163 900.192 593.163 901.62 592.779 902.901 592.011 903.156 591.885 903.435 591.819 903.741 591.819 904.203 591.819 904.575 591.999 904.857 592.359 905.112 592.68 905.241 593.019 905.241 593.379 905.241 593.643 905.169 593.889 905.025 594.111 904.887 594.336 904.704 594.513 904.473 594.639 903.639 595.104 902.703 595.476 901.665 595.755 900.633 596.034 899.616 596.175 898.617 596.175 896.544 596.175 894.636 595.716 892.893 594.795 891.156 593.877 889.767 592.539 888.729 590.787 887.697 589.035 887.181 586.989 887.181 584.643 887.181 582.483 887.676 580.536 888.669 578.799 889.659 577.056 891.024 575.688 892.761 574.695 894.504 573.705 896.457 573.207 898.617 573.207 900.681 573.207 902.619 573.72 904.437 574.743Z" fill="#231F20" fill-rule="nonzero" fill-opacity="1"/><path d="M926.82 573.435C927.229 573.435 927.559 573.567 927.817 573.831 928.071 574.095 928.201 574.431 928.201 574.839L928.201 594.279C928.201 594.729 928.057 595.104 927.768 595.407 927.481 595.704 927.111 595.851 926.664 595.851 926.43 595.851 926.202 595.815 925.981 595.743 925.755 595.665 925.578 595.551 925.453 595.407L912.865 579.003 912.865 594.447C912.865 594.849 912.727 595.185 912.456 595.455 912.193 595.719 911.857 595.851 911.448 595.851 911.047 595.851 910.719 595.719 910.464 595.455 910.206 595.185 910.081 594.849 910.081 594.447L910.081 574.971C910.081 574.524 910.224 574.155 910.513 573.867 910.8 573.579 911.154 573.435 911.581 573.435 911.836 573.435 912.078 573.483 912.312 573.579 912.552 573.675 912.735 573.807 912.865 573.975L925.417 590.403 925.417 574.839C925.417 574.431 925.549 574.095 925.812 573.831 926.083 573.567 926.419 573.435 926.82 573.435Z" fill="#231F20" fill-rule="nonzero" fill-opacity="1"/><path d="M949.046 586.815C949.028 587.199 948.869 587.529 948.566 587.799 948.269 588.063 947.918 588.195 947.51 588.195L936.242 588.195C936.386 589.755 936.974 591.009 938.006 591.951 939.044 592.887 940.313 593.355 941.81 593.355 942.833 593.355 943.664 593.208 944.306 592.911 944.945 592.608 945.512 592.221 946.01 591.747 946.328 591.555 946.637 591.459 946.934 591.459 947.294 591.459 947.597 591.588 947.846 591.843 948.092 592.101 948.218 592.401 948.218 592.743 948.218 593.193 948.002 593.601 947.57 593.967 946.952 594.585 946.133 595.107 945.11 595.539 944.084 595.962 943.037 596.175 941.966 596.175 940.238 596.175 938.717 595.812 937.406 595.083 936.092 594.357 935.078 593.343 934.358 592.047 933.644 590.745 933.29 589.269 933.29 587.619 933.29 585.828 933.656 584.256 934.394 582.903 935.129 581.544 936.101 580.5 937.31 579.771 938.516 579.045 939.812 578.679 941.198 578.679 942.566 578.679 943.844 579.036 945.038 579.747 946.238 580.452 947.201 581.424 947.93 582.663 948.656 583.896 949.028 585.279 949.046 586.815ZM941.198 581.499C940.004 581.499 938.969 581.835 938.09 582.507 937.217 583.179 936.641 584.223 936.362 585.639L945.818 585.639 945.818 585.375C945.704 584.247 945.194 583.32 944.282 582.591 943.376 581.865 942.35 581.499 941.198 581.499Z" fill="#231F20" fill-rule="nonzero" fill-opacity="1"/><path d="M958.295 582.051 958.295 591.591C958.295 592.656 958.778 593.187 959.747 593.187 959.891 593.187 960.089 593.151 960.347 593.079 960.602 593.007 960.806 592.971 960.959 592.971 961.238 592.971 961.475 593.091 961.667 593.331 961.859 593.565 961.955 593.859 961.955 594.219 961.955 594.669 961.697 595.053 961.187 595.371 960.674 595.692 960.098 595.851 959.459 595.851 958.754 595.851 958.106 595.779 957.515 595.635 956.93 595.485 956.405 595.104 955.943 594.495 955.487 593.889 955.259 592.965 955.259 591.723L955.259 582.051 953.399 582.051C952.991 582.051 952.655 581.919 952.391 581.655 952.127 581.385 951.995 581.043 951.995 580.635 951.995 580.236 952.127 579.909 952.391 579.651 952.655 579.387 952.991 579.255 953.399 579.255L955.259 579.255 955.259 576.567C955.259 576.144 955.403 575.784 955.691 575.487 955.979 575.184 956.345 575.031 956.795 575.031 957.218 575.031 957.575 575.184 957.863 575.487 958.151 575.784 958.295 576.144 958.295 576.567L958.295 579.255 960.959 579.255C961.367 579.255 961.703 579.393 961.967 579.663 962.231 579.927 962.363 580.263 962.363 580.671 962.363 581.079 962.231 581.412 961.967 581.667 961.703 581.925 961.367 582.051 960.959 582.051Z" fill="#231F20" fill-rule="nonzero" fill-opacity="1"/></g></g></g></g></svg>