<svg width="58" height="56" xmlns="http://www.w3.org/2000/svg" xmlns:xlink="http://www.w3.org/1999/xlink" overflow="hidden"><defs><clipPath id="clip0"><rect x="1002" y="552" width="58" height="56"/></clipPath><clipPath id="clip1"><rect x="1003" y="553" width="57" height="54"/></clipPath><clipPath id="clip2"><rect x="1003" y="553" width="57" height="54"/></clipPath><clipPath id="clip3"><rect x="1003" y="553" width="57" height="54"/></clipPath><clipPath id="clip4"><rect x="1005" y="555" width="53" height="50"/></clipPath></defs><g clip-path="url(#clip0)" transform="translate(-1002 -552)"><g clip-path="url(#clip1)"><g clip-path="url(#clip2)"><g clip-path="url(#clip3)"><path d="M0 0 54 0 54 54 0 54Z" fill="#FFFFFF" fill-rule="nonzero" fill-opacity="1" transform="matrix(1.05556 0 0 1 1003 553)"/><path d="M0 0 54 0 54 54 0 54Z" fill="#FFFFFF" fill-rule="nonzero" fill-opacity="1" transform="matrix(1.05556 0 0 1 1003 553)"/><path d="M0 0 54 0 54 54 0 54Z" fill="#FFFFFF" fill-rule="nonzero" fill-opacity="1" transform="matrix(1.05556 0 0 1 1003 553)"/><g clip-path="url(#clip4)"><path d="M38.8811 5.32068C35.4161 3.42337 31.3728 2.35068 27.1649 2.35068 22.0488 2.35068 17.2632 3.91837 13.3847 6.64088 13.3847 6.64088 13.3026 6.64088 13.3026 6.72356 6.86644 11.097 2.57568 18.5232 2.57568 26.8572 2.57568 40.3891 13.5501 51.4457 27.1649 51.4457 40.6968 51.4457 51.6707 40.4713 51.6707 26.8572 51.7533 17.5332 46.5553 9.44663 38.8811 5.32068ZM47.1325 14.8922C42.1819 17.5332 37.2313 19.3483 32.3628 20.5032 32.0327 19.7607 31.2902 19.183 30.4651 19.1009 30.4651 16.1303 30.96 12.9949 32.0327 9.77681L32.2802 9.77681C33.683 9.77681 34.7557 8.62144 34.7557 7.30125L34.7557 7.21856C35.9111 6.97107 37.0659 6.72356 38.304 6.55875 42.017 8.45663 45.0697 11.3445 47.1325 14.8922ZM46.7201 39.4813C42.3467 37.831 38.7991 35.6034 36.1587 32.963 36.4883 32.5502 36.6536 32.0551 36.6536 31.4775L36.6536 31.3949C41.1091 29.9925 45.7301 28.9198 50.4331 28.1773 50.1857 32.3853 48.8655 36.1806 46.7201 39.4813ZM35.4161 31.4775C35.4161 31.8904 35.2508 32.22 34.9206 32.4675 34.9206 32.4675 34.8385 32.4675 34.8385 32.5502 34.673 32.7151 34.4255 32.7151 34.1781 32.7151 33.5183 32.7151 32.9406 32.1379 32.9406 31.4775 32.9406 30.8177 33.5183 30.24 34.1781 30.24 34.8385 30.24 35.4161 30.8177 35.4161 31.4775ZM31.7025 31.4775 31.7025 31.7251C28.8973 32.7151 26.1743 33.8704 23.6166 35.1079 23.369 34.7783 23.0388 34.6128 22.6266 34.4481 23.1215 31.23 23.0388 27.8472 22.5439 24.5464 23.2864 24.2162 23.7813 23.5564 23.9468 22.8139 25.267 22.7311 26.5872 22.6485 27.9073 22.4837 28.2375 23.2262 28.98 23.8039 29.8873 23.9687 30.3823 26.1141 31.2075 28.0947 32.2802 29.9925 31.8679 30.4049 31.7025 30.8998 31.7025 31.4775ZM11.322 43.9368C13.9624 42.0391 16.8503 40.1417 19.9035 38.4913 20.0683 38.6561 20.2337 38.8215 20.3985 38.9036 19.4907 41.7915 18.1705 44.6799 16.3552 47.4851 14.4573 46.4951 12.807 45.3397 11.322 43.9368ZM7.44412 39.2338 7.44412 39.1511C7.52625 37.2532 8.10393 30.5702 11.8997 23.639 12.1472 23.7211 12.312 23.7211 12.5595 23.7211 13.5501 23.7211 14.3752 23.1435 14.7875 22.3188 16.1905 22.5664 17.5933 22.7311 18.9956 22.8139 19.2432 23.8866 20.0683 24.7117 21.2237 24.7939 21.8013 28.0119 21.8013 31.23 21.3064 34.3653 20.0683 34.5308 19.1611 35.6034 19.1611 36.841 19.1611 37.0057 19.1611 37.1712 19.2432 37.4187 16.025 39.1511 13.0551 41.0491 10.332 43.1117 9.25931 41.8742 8.26931 40.6367 7.44412 39.2338ZM36.4883 5.48607C35.8285 5.65088 35.0859 5.73356 34.4255 5.89837 34.2608 5.65088 34.0953 5.40337 33.8479 5.23856 34.0132 4.99107 34.0953 4.74356 34.1781 4.57819 35.0032 4.90837 35.7457 5.15588 36.4883 5.48607ZM33.6004 7.21856C33.6004 7.87893 33.0232 8.45663 32.3628 8.45663 32.1981 8.45663 32.1153 8.45663 32.0327 8.37393 32.0327 8.37393 31.9506 8.37393 31.9506 8.29125L31.8679 8.29125C31.4551 8.12644 31.1253 7.63144 31.1253 7.13644 31.1253 6.47607 31.7025 5.89837 32.3628 5.89837 33.0232 5.98107 33.6004 6.55875 33.6004 7.21856ZM30.96 9.28181C29.8051 12.6647 29.2275 16.0475 29.3096 19.183 28.4023 19.5132 27.8247 20.3383 27.7419 21.3283 26.5045 21.4937 25.1843 21.5758 23.9468 21.6585 23.6166 20.5858 22.7087 19.8433 21.5539 19.8433L21.3885 19.8433C21.0583 18.6879 20.5633 17.5332 20.0683 16.3777 20.646 15.8828 20.9762 15.2224 20.9762 14.4799 20.9762 14.1497 20.8935 13.7374 20.7287 13.4899 23.4511 11.4266 26.6692 9.77681 30.1349 8.53875 30.3823 8.78625 30.6304 9.11644 30.96 9.28181ZM21.5539 23.5564C20.8935 23.5564 20.3158 22.9787 20.3158 22.3188 20.3158 21.6585 20.8935 21.0809 21.5539 21.0809 22.2137 21.0809 22.7913 21.6585 22.7913 22.3188 22.7913 22.9787 22.2137 23.5564 21.5539 23.5564ZM19.7381 14.4799C19.7381 15.1403 19.1611 15.7173 18.5007 15.7173 17.8409 15.7173 17.2632 15.1403 17.2632 14.4799 17.2632 13.8195 17.8409 13.2424 18.5007 13.2424 19.1611 13.2424 19.7381 13.8195 19.7381 14.4799ZM17.1805 16.5426C17.5933 16.7901 18.0056 16.9554 18.5007 16.9554 18.6654 16.9554 18.8309 16.9554 18.9956 16.8728 19.4907 17.9454 19.9035 19.1009 20.2337 20.1735 19.7381 20.5032 19.4085 20.916 19.2432 21.4937 17.8409 21.4111 16.5207 21.2462 15.1177 20.9987 15.1177 20.5032 14.8703 20.0081 14.5401 19.5958 15.3652 18.6058 16.2726 17.5332 17.1805 16.5426ZM13.8797 21.2462 13.8797 21.4937C13.7976 22.0709 13.2199 22.4837 12.6422 22.4837 11.9824 22.4837 11.4047 21.906 11.4047 21.2462 11.4047 20.5858 11.9824 20.0081 12.6422 20.0081 13.3026 20.0081 13.8797 20.5032 13.8797 21.2462ZM20.4811 36.841C20.4811 36.1806 21.0583 35.6034 21.7187 35.6034 22.379 35.6034 22.9562 36.1806 22.9562 36.841 22.9562 37.5008 22.379 38.0785 21.7187 38.0785 21.0583 38.0785 20.4811 37.5834 20.4811 36.841ZM30.1349 22.8139C29.4751 22.8139 28.8973 22.2362 28.8973 21.5758 28.8973 20.916 29.4751 20.3383 30.1349 20.3383 30.7951 20.3383 31.3728 20.916 31.3728 21.5758 31.4551 22.2362 30.8779 22.8139 30.1349 22.8139ZM33.0232 4.33068C32.9406 4.41337 32.8579 4.57819 32.7751 4.82568 32.6104 4.82568 32.5277 4.74356 32.3628 4.74356 30.96 4.74356 29.8873 5.89837 29.8873 7.21856 26.1743 8.53875 22.8741 10.2718 19.9862 12.4172 19.5733 12.087 19.0783 11.9222 18.5007 11.9222 18.3358 11.9222 18.0883 11.9222 17.923 12.0043 16.5207 9.61144 15.2826 7.96163 14.6228 7.13644 18.2532 4.82568 22.5439 3.42337 27.1649 3.42337 29.2275 3.58819 31.1253 3.83568 33.0232 4.33068ZM13.5501 7.96163C14.1278 8.70412 15.4479 10.3545 16.7681 12.6647 16.2726 13.1597 15.943 13.7374 15.943 14.4799 15.943 14.8922 16.1077 15.305 16.2726 15.7173 15.2826 16.7079 14.3752 17.7807 13.4674 18.9354 13.2199 18.8533 12.8897 18.7707 12.5595 18.7707 11.6522 18.7707 10.827 19.2656 10.4141 20.0081 8.26931 19.3483 6.61893 18.6052 5.54625 18.0281 7.27875 13.9022 10.0845 10.4366 13.5501 7.96163ZM5.13337 19.183C6.20607 19.7607 7.93912 20.5032 10.0845 21.1635L10.0845 21.2462C10.0845 21.906 10.332 22.5664 10.827 22.9787 7.69163 28.7545 6.61893 34.2832 6.37144 37.2532 4.80375 34.1179 3.89588 30.5702 3.89588 26.8566 3.89588 24.1341 4.30819 21.5758 5.13337 19.183ZM27.1649 50.1255C23.6992 50.1255 20.3985 49.3831 17.4279 47.9801 19.2432 45.175 20.646 42.2044 21.5539 39.3165L21.8013 39.3165C23.2037 39.3165 24.2764 38.1611 24.2764 36.841 24.2764 36.6761 24.2764 36.4287 24.1943 36.2632 26.7519 35.0257 29.4751 33.8704 32.1981 32.8804 32.6104 33.5402 33.3528 33.953 34.2608 33.953 34.673 33.953 35.0032 33.8704 35.3334 33.7055 38.0565 36.4287 41.6868 38.7389 46.1425 40.4713 41.7695 46.3297 34.9206 50.1255 27.1649 50.1255ZM50.4331 26.9392C45.5648 27.6817 40.8617 28.7545 36.2408 30.24 35.8285 29.4975 35.0032 29.0019 34.0953 29.0019 33.7657 29.0019 33.4355 29.0847 33.1881 29.1673 32.1981 27.517 31.4551 25.7017 31.0427 23.8039 31.9506 23.4737 32.5277 22.6485 32.6104 21.6585 37.561 20.5032 42.6768 18.6052 47.7101 15.9648 49.4431 19.183 50.4331 22.896 50.4331 26.8566Z" fill="#FF904D" fill-rule="nonzero" fill-opacity="1" transform="matrix(1.05556 0 0 1 1003 553)"/></g><path d="M27.3588 50.8955C20.8727 50.8955 14.7656 48.371 10.1829 43.7783 5.59012 39.1955 3.06563 33.0879 3.06563 26.6023 3.06563 20.1161 5.59012 14.0091 10.1829 9.42637 14.7656 4.83356 20.8727 2.30907 27.3588 2.30907 33.8445 2.30907 39.9521 4.83356 44.5349 9.42637 49.1276 14.0186 51.6521 20.1161 51.6521 26.6023 51.6521 33.0879 49.1276 39.1955 44.5349 43.7783 39.9521 48.371 33.8445 50.8955 27.3588 50.8955ZM27.3588 3.76537C21.2613 3.76537 15.5228 6.14419 11.2118 10.4552 6.90075 14.7662 4.52193 20.5049 4.52193 26.6023 4.52193 32.6998 6.90075 38.4379 11.2118 42.7488 15.5228 47.0599 21.2613 49.4387 27.3588 49.4387 33.4564 49.4387 39.1945 47.0599 43.5054 42.7488 47.8165 38.4379 50.1952 32.6998 50.1952 26.6023 50.1952 20.5049 47.8165 14.7662 43.5054 10.4552 39.1945 6.14419 33.4564 3.76537 27.3588 3.76537Z" fill="#FF904D" fill-rule="nonzero" fill-opacity="1" transform="matrix(1.05556 0 0 1 1003 553)"/></g></g></g></g></svg>